<?xml version="1.0" encoding="UTF-8" standalone="no"?>
<svg
   xmlns:dc="http://purl.org/dc/elements/1.1/"
   xmlns:cc="http://creativecommons.org/ns#"
   xmlns:rdf="http://www.w3.org/1999/02/22-rdf-syntax-ns#"
   xmlns:svg="http://www.w3.org/2000/svg"
   xmlns="http://www.w3.org/2000/svg"
   xmlns:sodipodi="http://sodipodi.sourceforge.net/DTD/sodipodi-0.dtd"
   xmlns:inkscape="http://www.inkscape.org/namespaces/inkscape"
   sodipodi:docname="logo_kumiaikaku_kasaneshuriken.svg"
   inkscape:version="1.0 (4035a4fb49, 2020-05-01)"
   id="svg8"
   version="1.1"
   viewBox="0 0 132.29166 132.29167"
   height="500"
   width="500">
  <defs
     id="defs2" />
  <sodipodi:namedview
     inkscape:window-maximized="0"
     inkscape:window-y="46"
     inkscape:window-x="24"
     inkscape:window-height="1004"
     inkscape:window-width="1866"
     inkscape:guide-bbox="true"
     showguides="true"
     inkscape:pagecheckerboard="true"
     units="px"
     showgrid="true"
     inkscape:document-rotation="0"
     inkscape:current-layer="g1070"
     inkscape:document-units="px"
     inkscape:cy="229.91666"
     inkscape:cx="244.34007"
     inkscape:zoom="2.3579016"
     inkscape:pageshadow="2"
     inkscape:pageopacity="0.0"
     borderopacity="1.0"
     bordercolor="#666666"
     pagecolor="#ffffff"
     id="base">
    <inkscape:grid
       id="grid10"
       type="xygrid" />
    <sodipodi:guide
       id="guide12"
       orientation="0,500"
       position="0,132.29166" />
    <sodipodi:guide
       id="guide14"
       orientation="500,0"
       position="132.29166,132.29166" />
    <sodipodi:guide
       id="guide16"
       orientation="0,-500"
       position="132.29166,0" />
    <sodipodi:guide
       id="guide18"
       orientation="-500,0"
       position="0,0" />
    <sodipodi:guide
       id="guide20"
       orientation="1,0"
       position="66.14583,66.145835" />
    <sodipodi:guide
       id="guide22"
       orientation="0,-1"
       position="66.145828,66.145835" />
  </sodipodi:namedview>
  <metadata
     id="metadata5">
    <rdf:RDF>
      <cc:Work
         rdf:about="">
        <dc:format>image/svg+xml</dc:format>
        <dc:type
           rdf:resource="http://purl.org/dc/dcmitype/StillImage" />
        <dc:title></dc:title>
      </cc:Work>
    </rdf:RDF>
  </metadata>
  <g
     id="layer1"
     inkscape:groupmode="layer"
     inkscape:label="Layer 1">
    <g
       transform="matrix(0.48000002,0,0,0.48000002,34.395833,34.395833)"
       id="g1070">
      <path
         id="path1035"
         style="fill:#000000;fill-opacity:1;stroke:none;stroke-width:1.1875px;stroke-linecap:butt;stroke-linejoin:miter;stroke-opacity:1"
         d="M 379.0957,108.93164 384.0293,229.76172 452.79297,70 Z"
         transform="scale(0.26458333)"
         sodipodi:nodetypes="cccccccc" />
      <path
         sodipodi:nodetypes="cccccccc"
         transform="scale(0.26458333)"
         d="M 379.0957,108.93164 384.0293,229.76172 452.79297,70 Z"
         style="fill:#000000;fill-opacity:1;stroke:none;stroke-width:1.1875px;stroke-linecap:butt;stroke-linejoin:miter;stroke-opacity:1"
         id="path1053" />
      <path
         id="path26"
         style="fill:#000000;fill-opacity:1;stroke:none;stroke-width:0.999999px;stroke-linecap:butt;stroke-linejoin:miter;stroke-opacity:1"
         d="M 115.9707,270.23828 47.207031,430 120.9043,391.06836 Z"
         transform="scale(0.26458333)"
         sodipodi:nodetypes="cccccccc" />
      <path
         id="path28"
         style="fill:#000000;fill-opacity:1;stroke:none;stroke-width:0.999999px;stroke-linecap:butt;stroke-linejoin:miter;stroke-opacity:1"
         d="M 391.06836,379.0957 270.23828,384.0293 430,452.79297 Z"
         transform="scale(0.26458333)"
         sodipodi:nodetypes="cccccccc" />
      <path
         id="path30"
         style="fill:#000000;fill-opacity:1;stroke:none;stroke-width:0.999999px;stroke-linecap:butt;stroke-linejoin:miter;stroke-opacity:1"
         d="m 70,47.207031 38.93164,73.697269 120.83008,-4.9336 z"
         transform="scale(0.26458333)"
         sodipodi:nodetypes="cccccccc" />
      <path
         d="M 93.927082,0 68.791666,33.932812 v 29.567187 h 27.727507 z"
         style="fill:#000000;fill-opacity:1;stroke:none;stroke-width:0.264583px;stroke-linecap:butt;stroke-linejoin:miter;stroke-opacity:1"
         id="path924" />
      <path
         d="M 35.772492,68.791666 38.364583,132.29166 63.499999,98.358853 V 68.791666 Z"
         style="fill:#000000;fill-opacity:1;stroke:none;stroke-width:0.264583px;stroke-linecap:butt;stroke-linejoin:miter;stroke-opacity:1"
         id="path926" />
      <path
         d="M 68.791666,68.791666 V 96.519173 L 132.29166,93.927082 98.358853,68.791666 Z"
         style="fill:#000000;fill-opacity:1;stroke:none;stroke-width:0.264583px;stroke-linecap:butt;stroke-linejoin:miter;stroke-opacity:1"
         id="path928" />
      <path
         d="M 63.499999,35.772492 0,38.364583 33.932812,63.499999 h 29.567187 z"
         style="fill:#000000;fill-opacity:1;stroke:none;stroke-width:0.264583px;stroke-linecap:butt;stroke-linejoin:miter;stroke-opacity:1"
         id="path930" />
    </g>
    <path
       transform="scale(0.26458333)"
       d="M 250,0 176.77734,73.222656 H 73.222656 V 176.77734 L 0,250 73.222656,323.22266 V 426.77734 H 176.77734 L 250,500 323.22266,426.77734 H 426.77734 V 323.22266 L 500,250 426.77734,176.77734 V 73.222656 H 323.22266 Z m 0,52.009766 21.21289,21.21289 h -28.2832 L 206.15234,110 H 307.99023 360 390 v 30 L 370,120 H 317.99023 L 390,192.00977 426.77734,228.78711 447.99023,250 426.77734,271.21289 v -28.2832 L 390,206.15234 V 307.99023 360 390 h -30 l 20,-20 V 317.99023 L 307.99023,390 271.21289,426.77734 250,447.99023 228.78711,426.77734 h 28.2832 L 293.84766,390 H 192.00977 140 110 v -30 l 20,20 h 52.00977 L 110,307.99023 73.222656,271.21289 52.009766,250 73.222656,228.78711 v 28.2832 L 110,293.84766 V 192.00977 140 110 h 30 l -20,20 v 52.00977 L 192.00977,110 228.78711,73.222656 Z"
       style="opacity:1;fill:#000000;fill-opacity:1;stroke:none;stroke-width:0.999999px;stroke-linecap:butt;stroke-linejoin:miter;stroke-opacity:1"
       id="path1127" />
  </g>
</svg>
